<svg width="2875" height="1449" xmlns="http://www.w3.org/2000/svg" xmlns:xlink="http://www.w3.org/1999/xlink" xml:space="preserve" overflow="hidden"><defs><clipPath id="clip0"><rect x="209" y="180" width="2875" height="1449"/></clipPath><clipPath id="clip1"><rect x="2606" y="-274" width="468" height="2157"/></clipPath><clipPath id="clip2"><rect x="2606" y="-274" width="468" height="2157"/></clipPath><clipPath id="clip3"><rect x="2606" y="-274" width="468" height="2157"/></clipPath><clipPath id="clip4"><rect x="2606" y="-274" width="468" height="2157"/></clipPath><clipPath id="clip5"><rect x="2606" y="-274" width="468" height="2157"/></clipPath><clipPath id="clip6"><rect x="226" y="419" width="1157" height="540"/></clipPath><clipPath id="clip7"><rect x="226" y="419" width="1157" height="540"/></clipPath><clipPath id="clip8"><rect x="226" y="686" width="1157" height="540"/></clipPath><clipPath id="clip9"><rect x="226" y="820" width="1157" height="540"/></clipPath><clipPath id="clip10"><rect x="226" y="954" width="1157" height="540"/></clipPath></defs><g clip-path="url(#clip0)" transform="translate(-209 -180)"><path d="M226.008 413.606 1382.63 413.606 1382.63 633.606 226.008 633.606Z" fill="#212834" fill-rule="evenodd"/><path d="M1382.63 413.606 1748.76 413.606 1748.76 633.606 1382.63 633.606Z" fill="#212834" fill-rule="evenodd"/><path d="M1748.76 413.606 2061.9 413.606 2061.9 633.606 1748.76 633.606Z" fill="#212834" fill-rule="evenodd"/><path d="M2061.9 413.606 2606.88 413.606 2606.88 523.606 2061.9 523.606Z" fill="#212834" fill-rule="evenodd"/><path d="M2606.88 413.606 3073.99 413.606 3073.99 633.606 2606.88 633.606Z" fill="#212834" fill-rule="evenodd"/><path d="M2061.9 523.606 2326.86 523.606 2326.86 633.606 2061.9 633.606Z" fill="#CCCDCD" fill-rule="evenodd"/><path d="M2326.86 523.606 2606.88 523.606 2606.88 633.606 2326.86 633.606Z" fill="#CCCDCD" fill-rule="evenodd"/><path d="M226.008 633.606 1382.63 633.606 1382.63 767.439 226.008 767.439Z" fill="#E8E8E8" fill-rule="evenodd"/><path d="M1382.63 633.606 1748.76 633.606 1748.76 767.439 1382.63 767.439Z" fill="#E8E8E8" fill-rule="evenodd"/><path d="M1748.76 633.606 2061.9 633.606 2061.9 767.439 1748.76 767.439Z" fill="#E8E8E8" fill-rule="evenodd"/><path d="M2061.9 633.606 2326.86 633.606 2326.86 767.439 2061.9 767.439Z" fill="#E8E8E8" fill-rule="evenodd"/><path d="M2326.86 633.606 2606.88 633.606 2606.88 767.439 2326.86 767.439Z" fill="#E8E8E8" fill-rule="evenodd"/><path d="M2606.88 633.606 3073.99 633.606 3073.99 1302.77 2606.88 1302.77Z" fill="#E8E8E8" fill-rule="evenodd"/><path d="M226.008 767.439 1382.63 767.439 1382.63 901.272 226.008 901.272Z" fill="#CCCDCD" fill-rule="evenodd"/><path d="M1382.63 767.439 1748.76 767.439 1748.76 901.272 1382.63 901.272Z" fill="#CCCDCD" fill-rule="evenodd"/><path d="M1748.76 767.439 2061.9 767.439 2061.9 901.272 1748.76 901.272Z" fill="#CCCDCD" fill-rule="evenodd"/><path d="M2061.9 767.439 2326.86 767.439 2326.86 901.272 2061.9 901.272Z" fill="#CCCDCD" fill-rule="evenodd"/><path d="M2326.86 767.439 2606.88 767.439 2606.88 901.272 2326.86 901.272Z" fill="#CCCDCD" fill-rule="evenodd"/><path d="M226.008 901.272 1382.63 901.272 1382.63 1035.11 226.008 1035.11Z" fill="#E8E8E8" fill-rule="evenodd"/><path d="M1382.63 901.272 1748.76 901.272 1748.76 1035.11 1382.63 1035.11Z" fill="#E8E8E8" fill-rule="evenodd"/><path d="M1748.76 901.272 2061.9 901.272 2061.9 1035.11 1748.76 1035.11Z" fill="#E8E8E8" fill-rule="evenodd"/><path d="M2061.9 901.272 2326.86 901.272 2326.86 1035.11 2061.9 1035.11Z" fill="#E8E8E8" fill-rule="evenodd"/><path d="M2326.86 901.272 2606.88 901.272 2606.88 1035.11 2326.86 1035.11Z" fill="#E8E8E8" fill-rule="evenodd"/><path d="M226.008 1035.11 1382.63 1035.11 1382.63 1168.94 226.008 1168.94Z" fill="#CCCDCD" fill-rule="evenodd"/><path d="M1382.63 1035.11 1748.76 1035.11 1748.76 1168.94 1382.63 1168.94Z" fill="#CCCDCD" fill-rule="evenodd"/><path d="M1748.76 1035.11 2061.9 1035.11 2061.9 1168.94 1748.76 1168.94Z" fill="#CCCDCD" fill-rule="evenodd"/><path d="M2061.9 1035.11 2326.86 1035.11 2326.86 1168.94 2061.9 1168.94Z" fill="#CCCDCD" fill-rule="evenodd"/><path d="M2326.86 1035.11 2606.88 1035.11 2606.88 1168.94 2326.86 1168.94Z" fill="#CCCDCD" fill-rule="evenodd"/><path d="M226.008 1168.94 1382.63 1168.94 1382.63 1302.77 226.008 1302.77Z" fill="#E8E8E8" fill-rule="evenodd"/><path d="M1382.63 1168.94 1748.76 1168.94 1748.76 1302.77 1382.63 1302.77Z" fill="#E8E8E8" fill-rule="evenodd"/><path d="M1748.76 1168.94 2061.9 1168.94 2061.9 1302.77 1748.76 1302.77Z" fill="#E8E8E8" fill-rule="evenodd"/><path d="M2061.9 1168.94 2326.86 1168.94 2326.86 1302.77 2061.9 1302.77Z" fill="#E8E8E8" fill-rule="evenodd"/><path d="M2326.86 1168.94 2606.88 1168.94 2606.88 1302.77 2326.86 1302.77Z" fill="#E8E8E8" fill-rule="evenodd"/><path d="M1382.63 411.314 1382.63 1305.06" stroke="#FFFFFF" stroke-width="4.58333" stroke-linejoin="round" stroke-miterlimit="10" fill="none" fill-rule="evenodd"/><path d="M1748.76 411.314 1748.76 1305.06" stroke="#FFFFFF" stroke-width="4.58333" stroke-linejoin="round" stroke-miterlimit="10" fill="none" fill-rule="evenodd"/><path d="M2061.9 411.314 2061.9 516.731" stroke="#FFFFFF" stroke-width="4.58333" stroke-linejoin="round" stroke-miterlimit="10" fill="none" fill-rule="evenodd"/><path d="M2061.9 516.731 2061.9 640.481" stroke="#FFFFFF" stroke-width="13.75" stroke-linejoin="round" stroke-miterlimit="10" fill="none" fill-rule="evenodd"/><path d="M2061.9 640.481 2061.9 1305.06" stroke="#FFFFFF" stroke-width="4.58333" stroke-linejoin="round" stroke-miterlimit="10" fill="none" fill-rule="evenodd"/><path d="M2326.86 516.731 2326.86 1305.06" stroke="#FFFFFF" stroke-width="4.58333" stroke-linejoin="round" stroke-miterlimit="10" fill="none" fill-rule="evenodd"/><path d="M2606.88 411.314 2606.88 516.731" stroke="#FFFFFF" stroke-width="4.58333" stroke-linejoin="round" stroke-miterlimit="10" fill="none" fill-rule="evenodd"/><path d="M2606.88 516.731 2606.88 640.481" stroke="#FFFFFF" stroke-width="13.75" stroke-linejoin="round" stroke-miterlimit="10" fill="none" fill-rule="evenodd"/><path d="M2606.88 640.481 2606.88 1305.06" stroke="#FFFFFF" stroke-width="4.58333" stroke-linejoin="round" stroke-miterlimit="10" fill="none" fill-rule="evenodd"/><path d="M2055.02 523.606 2613.76 523.606" stroke="#FFFFFF" stroke-width="13.75" stroke-linejoin="round" stroke-miterlimit="10" fill="none" fill-rule="evenodd"/><path d="M223.716 633.606 2068.77 633.606" stroke="#FFFFFF" stroke-width="13.75" stroke-linejoin="round" stroke-miterlimit="10" fill="none" fill-rule="evenodd"/><path d="M2068.77 633.606 2600.01 633.606" stroke="#FFFFFF" stroke-width="4.58333" stroke-linejoin="round" stroke-miterlimit="10" fill="none" fill-rule="evenodd"/><path d="M2600.01 633.606 3076.28 633.606" stroke="#FFFFFF" stroke-width="13.75" stroke-linejoin="round" stroke-miterlimit="10" fill="none" fill-rule="evenodd"/><path d="M223.716 767.439 2609.17 767.439" stroke="#FFFFFF" stroke-width="4.58333" stroke-linejoin="round" stroke-miterlimit="10" fill="none" fill-rule="evenodd"/><path d="M223.716 901.272 2609.17 901.272" stroke="#FFFFFF" stroke-width="4.58333" stroke-linejoin="round" stroke-miterlimit="10" fill="none" fill-rule="evenodd"/><path d="M223.716 1035.11 2609.17 1035.11" stroke="#FFFFFF" stroke-width="4.58333" stroke-linejoin="round" stroke-miterlimit="10" fill="none" fill-rule="evenodd"/><path d="M223.716 1168.94 2609.17 1168.94" stroke="#FFFFFF" stroke-width="4.58333" stroke-linejoin="round" stroke-miterlimit="10" fill="none" fill-rule="evenodd"/><path d="M226.008 411.314 226.008 1305.06" stroke="#FFFFFF" stroke-width="4.58333" stroke-linejoin="round" stroke-miterlimit="10" fill="none" fill-rule="evenodd"/><path d="M3073.99 411.314 3073.99 1305.06" stroke="#FFFFFF" stroke-width="4.58333" stroke-linejoin="round" stroke-miterlimit="10" fill="none" fill-rule="evenodd"/><path d="M223.716 413.606 3076.28 413.606" stroke="#FFFFFF" stroke-width="4.58333" stroke-linejoin="round" stroke-miterlimit="10" fill="none" fill-rule="evenodd"/><path d="M223.716 1302.77 3076.28 1302.77" stroke="#FFFFFF" stroke-width="4.58333" stroke-linejoin="round" stroke-miterlimit="10" fill="none" fill-rule="evenodd"/><text fill="#FFFFFF" font-family="Microsoft YaHei,Microsoft YaHei_MSFontService,sans-serif" font-weight="700" font-size="64" transform="matrix(1 0 0 1 2776.27 492)">备注</text><text fill="#FFFFFF" font-family="Times New Roman,Times New Roman_MSFontService,sans-serif" font-weight="700" font-size="64" transform="matrix(1 0 0 1 2172.54 492)">Si</text><text fill="#FFFFFF" font-family="Times New Roman,Times New Roman_MSFontService,sans-serif" font-weight="700" font-size="64" transform="matrix(1 0 0 1 2225.82 492)">-</text><text fill="#FFFFFF" font-family="Times New Roman,Times New Roman_MSFontService,sans-serif" font-weight="700" font-size="64" transform="matrix(1 0 0 1 2247.02 492)">SNR(dB)</text><text fill="#FFFFFF" font-family="Microsoft YaHei,Microsoft YaHei_MSFontService,sans-serif" font-weight="700" font-size="64" transform="matrix(1 0 0 1 1800.2 492)">时域</text><text fill="#FFFFFF" font-family="Times New Roman,Times New Roman_MSFontService,sans-serif" font-weight="700" font-size="64" transform="matrix(1 0 0 1 1928.53 492)">/</text><text fill="#FFFFFF" font-family="Microsoft YaHei,Microsoft YaHei_MSFontService,sans-serif" font-weight="700" font-size="64" transform="matrix(1 0 0 1 1946.29 492)">时</text><text fill="#FFFFFF" font-family="Microsoft YaHei,Microsoft YaHei_MSFontService,sans-serif" font-weight="700" font-size="64" transform="matrix(1 0 0 1 1841.15 569)">频域</text><text fill="#FFFFFF" font-family="Microsoft YaHei,Microsoft YaHei_MSFontService,sans-serif" font-weight="700" font-size="64" transform="matrix(1 0 0 1 1437.36 492)">是否有视</text><text fill="#FFFFFF" font-family="Microsoft YaHei,Microsoft YaHei_MSFontService,sans-serif" font-weight="700" font-size="64" transform="matrix(1 0 0 1 1533.61 569)">觉</text><text fill="#FFFFFF" font-family="Microsoft YaHei,Microsoft YaHei_MSFontService,sans-serif" font-weight="700" font-size="64" transform="matrix(1 0 0 1 740.151 492)">方法</text><text fill="#121212" font-family="Times New Roman,Times New Roman_MSFontService,sans-serif" font-weight="700" font-size="64" transform="matrix(1 0 0 1 2388.38 602)">3spkr</text><text fill="#121212" font-family="Times New Roman,Times New Roman_MSFontService,sans-serif" font-weight="700" font-size="64" transform="matrix(1 0 0 1 2115.89 602)">2spkr</text><g clip-path="url(#clip1)"><text fill="#121212" font-family="Microsoft YaHei,Microsoft YaHei_MSFontService,sans-serif" font-weight="700" font-size="64" transform="matrix(1 0 0 1 2639.88 712)">数据集</text></g><text fill="#121212" font-family="Times New Roman,Times New Roman_MSFontService,sans-serif" font-weight="700" font-size="64" transform="matrix(1 0 0 1 2832.38 712)">: LRS2</text><g clip-path="url(#clip2)"><text fill="#121212" font-family="Microsoft YaHei,Microsoft YaHei_MSFontService,sans-serif" font-weight="700" font-size="64" transform="matrix(1 0 0 1 3026.6 712)">；</text></g><g clip-path="url(#clip3)"><text fill="#121212" font-family="Times New Roman,Times New Roman_MSFontService,sans-serif" font-weight="700" font-size="64" transform="matrix(1 0 0 1 2639.88 866)">Si</text></g><text fill="#121212" font-family="Times New Roman,Times New Roman_MSFontService,sans-serif" font-weight="700" font-size="64" transform="matrix(1 0 0 1 2693.16 866)">-</text><text fill="#121212" font-family="Times New Roman,Times New Roman_MSFontService,sans-serif" font-weight="700" font-size="64" transform="matrix(1 0 0 1 2714.36 866)">SNR</text><g clip-path="url(#clip4)"><text fill="#121212" font-family="Microsoft YaHei,Microsoft YaHei_MSFontService,sans-serif" font-weight="700" font-size="64" transform="matrix(1 0 0 1 2842.69 866)">值越高，</text></g><g clip-path="url(#clip5)"><text fill="#121212" font-family="Microsoft YaHei,Microsoft YaHei_MSFontService,sans-serif" font-weight="700" font-size="64" transform="matrix(1 0 0 1 2639.88 943)">结果越好；</text></g><text fill="#121212" font-family="Times New Roman,Times New Roman_MSFontService,sans-serif" font-weight="700" font-size="64" transform="matrix(1 0 0 1 2410.73 712)">8.18</text><text fill="#121212" font-family="Times New Roman,Times New Roman_MSFontService,sans-serif" font-weight="700" font-size="64" transform="matrix(1 0 0 1 2123.96 712)">11.32</text><text fill="#121212" font-family="Microsoft YaHei,Microsoft YaHei_MSFontService,sans-serif" font-weight="700" font-size="64" transform="matrix(1 0 0 1 1809.08 712)">时频域</text><text fill="#121212" font-family="Microsoft YaHei,Microsoft YaHei_MSFontService,sans-serif" font-weight="700" font-size="64" transform="matrix(1 0 0 1 1533.61 712)">无</text><g clip-path="url(#clip6)"><text fill="#121212" font-family="Microsoft YaHei,Microsoft YaHei_MSFontService,sans-serif" font-weight="700" font-size="64" transform="matrix(1 0 0 1 253.745 712)">理想比值掩蔽</text></g><text fill="#121212" font-family="Times New Roman,Times New Roman_MSFontService,sans-serif" font-weight="700" font-size="64" transform="matrix(1 0 0 1 654.787 712)">( </text><text fill="#121212" font-family="Microsoft YaHei,Microsoft YaHei_MSFontService,sans-serif" font-weight="700" font-size="64" transform="matrix(1 0 0 1 692.026 712)">时频域方法中表现较好</text><g clip-path="url(#clip7)"><text fill="#121212" font-family="Times New Roman,Times New Roman_MSFontService,sans-serif" font-weight="700" font-size="64" transform="matrix(1 0 0 1 1333.69 712)">)</text></g><text fill="#121212" font-family="Times New Roman,Times New Roman_MSFontService,sans-serif" font-weight="700" font-size="64" transform="matrix(1 0 0 1 2410.73 846)">5.67</text><text fill="#121212" font-family="Times New Roman,Times New Roman_MSFontService,sans-serif" font-weight="700" font-size="64" transform="matrix(1 0 0 1 2122.19 846)">10.58</text><text fill="#121212" font-family="Microsoft YaHei,Microsoft YaHei_MSFontService,sans-serif" font-weight="700" font-size="64" transform="matrix(1 0 0 1 1841.16 846)">时域</text><text fill="#121212" font-family="Microsoft YaHei,Microsoft YaHei_MSFontService,sans-serif" font-weight="700" font-size="64" transform="matrix(1 0 0 1 1533.61 846)">无</text><text fill="#121212" font-family="Times New Roman,Times New Roman_MSFontService,sans-serif" font-weight="700" font-size="64" transform="matrix(1 0 0 1 291.351 846)">Conv</text><text fill="#121212" font-family="Times New Roman,Times New Roman_MSFontService,sans-serif" font-weight="700" font-size="64" transform="matrix(1 0 0 1 437.445 846)">-</text><text fill="#121212" font-family="Times New Roman,Times New Roman_MSFontService,sans-serif" font-weight="700" font-size="64" transform="matrix(1 0 0 1 458.643 846)">TasNet</text><text fill="#121212" font-family="Times New Roman,Times New Roman_MSFontService,sans-serif" font-weight="700" font-size="64" transform="matrix(1 0 0 1 665.305 846)">( </text><text fill="#121212" font-family="Microsoft YaHei,Microsoft YaHei_MSFontService,sans-serif" font-weight="700" font-size="64" transform="matrix(1 0 0 1 702.545 846)">时域方法中表现较好</text><text fill="#121212" font-family="Times New Roman,Times New Roman_MSFontService,sans-serif" font-weight="700" font-size="64" transform="matrix(1 0 0 1 1296.09 846)">)</text><text fill="#121212" font-family="Times New Roman,Times New Roman_MSFontService,sans-serif" font-weight="700" font-size="64" transform="matrix(1 0 0 1 2410.73 980)">8.33</text><text fill="#121212" font-family="Times New Roman,Times New Roman_MSFontService,sans-serif" font-weight="700" font-size="64" transform="matrix(1 0 0 1 2122.19 980)">12.88</text><text fill="#121212" font-family="Microsoft YaHei,Microsoft YaHei_MSFontService,sans-serif" font-weight="700" font-size="64" transform="matrix(1 0 0 1 1841.16 980)">时域</text><text fill="#121212" font-family="Microsoft YaHei,Microsoft YaHei_MSFontService,sans-serif" font-weight="700" font-size="64" transform="matrix(1 0 0 1 1533.61 980)">无</text><g clip-path="url(#clip8)"><text fill="#121212" font-family="Microsoft YaHei,Microsoft YaHei_MSFontService,sans-serif" font-weight="700" font-size="64" transform="matrix(1 0 0 1 259.008 980)">基于</text></g><text fill="#121212" font-family="Times New Roman,Times New Roman_MSFontService,sans-serif" font-weight="700" font-size="64" transform="matrix(1 0 0 1 387.341 980)">DPRNN</text><text fill="#121212" font-family="Microsoft YaHei,Microsoft YaHei_MSFontService,sans-serif" font-weight="700" font-size="64" transform="matrix(1 0 0 1 611.925 980)">的纯</text><text fill="#121212" font-family="Microsoft YaHei,Microsoft YaHei_MSFontService,sans-serif" font-weight="700" font-size="64" transform="matrix(1 0 0 1 740.258 980)">音频时域语音分离</text><text fill="#4472C4" font-family="Times New Roman,Times New Roman_MSFontService,sans-serif" font-weight="700" font-size="64" transform="matrix(1 0 0 1 2410.73 1114)">6.12</text><text fill="#4472C4" font-family="Times New Roman,Times New Roman_MSFontService,sans-serif" font-weight="700" font-size="64" transform="matrix(1 0 0 1 2122.19 1114)">10.33</text><text fill="#4472C4" font-family="Microsoft YaHei,Microsoft YaHei_MSFontService,sans-serif" font-weight="700" font-size="64" transform="matrix(1 0 0 1 1809.08 1114)">时频域</text><text fill="#4472C4" font-family="Microsoft YaHei,Microsoft YaHei_MSFontService,sans-serif" font-weight="700" font-size="64" transform="matrix(1 0 0 1 1533.61 1114)">有</text><g clip-path="url(#clip9)"><text fill="#121212" font-family="Microsoft YaHei,Microsoft YaHei_MSFontService,sans-serif" font-weight="700" font-size="64" transform="matrix(1 0 0 1 259.008 1114)">基于</text></g><text fill="#121212" font-family="Times New Roman,Times New Roman_MSFontService,sans-serif" font-weight="700" font-size="64" transform="matrix(1 0 0 1 387.341 1114)">DPRNN</text><text fill="#121212" font-family="Microsoft YaHei,Microsoft YaHei_MSFontService,sans-serif" font-weight="700" font-size="64" transform="matrix(1 0 0 1 611.925 1114)">的</text><text fill="#4472C4" font-family="Microsoft YaHei,Microsoft YaHei_MSFontService,sans-serif" font-weight="700" font-size="64" transform="matrix(1 0 0 1 676.091 1114)">时频域</text><text fill="#121212" font-family="Microsoft YaHei,Microsoft YaHei_MSFontService,sans-serif" font-weight="700" font-size="64" transform="matrix(1 0 0 1 868.591 1114)">视听双模态算法</text><text fill="#C00000" font-family="Times New Roman,Times New Roman_MSFontService,sans-serif" font-weight="700" font-size="64" transform="matrix(1 0 0 1 2394.68 1247)">10.36</text><text fill="#C00000" font-family="Times New Roman,Times New Roman_MSFontService,sans-serif" font-weight="700" font-size="64" transform="matrix(1 0 0 1 2122.19 1247)">13.89</text><text fill="#C00000" font-family="Microsoft YaHei,Microsoft YaHei_MSFontService,sans-serif" font-weight="700" font-size="64" transform="matrix(1 0 0 1 1841.16 1247)">时域</text><text fill="#C00000" font-family="Microsoft YaHei,Microsoft YaHei_MSFontService,sans-serif" font-weight="700" font-size="64" transform="matrix(1 0 0 1 1533.61 1247)">有</text><g clip-path="url(#clip10)"><text font-family="Microsoft YaHei,Microsoft YaHei_MSFontService,sans-serif" font-weight="700" font-size="64" transform="matrix(1 0 0 1 259.008 1247)">基于</text></g><text font-family="Times New Roman,Times New Roman_MSFontService,sans-serif" font-weight="700" font-size="64" transform="matrix(1 0 0 1 387.341 1247)">DPRNN</text><text font-family="Microsoft YaHei,Microsoft YaHei_MSFontService,sans-serif" font-weight="700" font-size="64" transform="matrix(1 0 0 1 611.925 1247)">的</text><text fill="#C00000" font-family="Microsoft YaHei,Microsoft YaHei_MSFontService,sans-serif" font-weight="700" font-size="64" transform="matrix(1 0 0 1 676.091 1247)">时域</text><text font-family="Microsoft YaHei,Microsoft YaHei_MSFontService,sans-serif" font-weight="700" font-size="64" transform="matrix(1 0 0 1 804.425 1247)">视听双模态算法</text><text font-family="Microsoft YaHei,Microsoft YaHei_MSFontService,sans-serif" font-weight="700" font-size="83" transform="matrix(1 0 0 1 424.008 1435)">此方法与</text><text fill="#C00000" font-family="Microsoft YaHei,Microsoft YaHei_MSFontService,sans-serif" font-weight="700" font-size="83" transform="matrix(1 0 0 1 754.008 1435)">纯音频</text><text font-family="Microsoft YaHei,Microsoft YaHei_MSFontService,sans-serif" font-weight="700" font-size="83" transform="matrix(1 0 0 1 1001.51 1435)">方法和</text><text fill="#4472C4" font-family="Microsoft YaHei,Microsoft YaHei_MSFontService,sans-serif" font-weight="700" font-size="83" transform="matrix(1 0 0 1 1249.01 1435)">时频域</text><text font-family="Microsoft YaHei,Microsoft YaHei_MSFontService,sans-serif" font-weight="700" font-size="83" transform="matrix(1 0 0 1 1496.51 1435)">多模态方法相比，在</text><text font-family="Microsoft YaHei,Microsoft YaHei_MSFontService,sans-serif" font-weight="700" font-size="83" transform="matrix(1 0 0 1 2239.01 1435)">测试集上的</text><text fill="#C00000" font-family="Microsoft YaHei,Microsoft YaHei_MSFontService,sans-serif" font-weight="700" font-size="83" transform="matrix(1 0 0 1 2651.51 1435)">评估值提</text><text fill="#C00000" font-family="Microsoft YaHei,Microsoft YaHei_MSFontService,sans-serif" font-weight="700" font-size="83" transform="matrix(1 0 0 1 259.008 1559)">升了</text><text fill="#C00000" font-family="Times New Roman,Times New Roman_MSFontService,sans-serif" font-weight="700" font-size="83" transform="matrix(1 0 0 1 444.633 1559)">1dB</text><text font-family="Microsoft YaHei,Microsoft YaHei_MSFontService,sans-serif" font-weight="700" font-size="83" transform="matrix(1 0 0 1 586.716 1559)">和</text><text fill="#4472C4" font-family="Times New Roman,Times New Roman_MSFontService,sans-serif" font-weight="700" font-size="83" transform="matrix(1 0 0 1 669.216 1559)">3dB</text><text font-family="Microsoft YaHei,Microsoft YaHei_MSFontService,sans-serif" font-weight="700" font-size="83" transform="matrix(1 0 0 1 811.299 1559)">以上。</text><text fill="#212834" font-family="Microsoft YaHei,Microsoft YaHei_MSFontService,sans-serif" font-weight="700" font-size="128" transform="matrix(1 0 0 1 1393.33 342)">实验结果</text></g></svg>