<svg width="4094" height="3622" xmlns="http://www.w3.org/2000/svg" xmlns:xlink="http://www.w3.org/1999/xlink" xml:space="preserve" overflow="hidden"><defs><clipPath id="clip0"><rect x="181" y="-641" width="4094" height="3622"/></clipPath></defs><g clip-path="url(#clip0)" transform="translate(-181 641)"><path d="M1349.5-470.664C1349.5-529.668 1397.33-577.5 1456.34-577.5L1883.66-577.5C1942.67-577.5 1990.5-529.668 1990.5-470.664L1990.5 3.66418C1990.5 62.6678 1942.67 110.5 1883.66 110.5L1456.34 110.5C1397.33 110.5 1349.5 62.6678 1349.5 3.66418Z" stroke="#000000" stroke-width="6.875" stroke-miterlimit="8" fill="#E7E6E6" fill-rule="evenodd"/><text font-family="Times New Roman,Times New Roman_MSFontService,sans-serif" font-weight="400" font-size="83" transform="matrix(1 0 0 1 1822.23 82)">4<tspan font-family="DengXian,DengXian_MSFontService,sans-serif" font-size="83" x="41.25" y="0">×</tspan><tspan font-size="83" x="96.25" y="0">4</tspan></text><rect x="1452.5" y="-334.5" width="444" height="122" stroke="#000000" stroke-width="6.875" stroke-miterlimit="8" fill="#BDD7EE"/><text font-family="Times New Roman,Times New Roman_MSFontService,sans-serif" font-weight="400" font-size="83" transform="matrix(1 0 0 1 1516.14 -246)">Conv3<tspan font-family="DengXian,DengXian_MSFontService,sans-serif" font-size="83" x="220" y="0">×</tspan>3</text><rect x="1452.5" y="-134.5" width="444" height="133" stroke="#000000" stroke-width="6.875" stroke-miterlimit="8" fill="#C5E0B4"/><text font-family="Times New Roman,Times New Roman_MSFontService,sans-serif" font-weight="400" font-size="83" transform="matrix(1 0 0 1 1519.58 -38)">Norm std</text><path d="M1354.5 428.502C1354.5 369.959 1401.96 322.5 1460.5 322.5L1884.5 322.5C1943.04 322.5 1990.5 369.959 1990.5 428.502L1990.5 1065.5C1990.5 1124.04 1943.04 1171.5 1884.5 1171.5L1460.5 1171.5C1401.96 1171.5 1354.5 1124.04 1354.5 1065.5Z" stroke="#000000" stroke-width="6.875" stroke-miterlimit="8" fill="#E7E6E6" fill-rule="evenodd"/><rect x="1450.5" y="778.5" width="444" height="121" stroke="#000000" stroke-width="6.875" stroke-miterlimit="8" fill="#BDD7EE"/><text font-family="Times New Roman,Times New Roman_MSFontService,sans-serif" font-weight="400" font-size="83" transform="matrix(1 0 0 1 1514.2 867)">Conv3<tspan font-family="DengXian,DengXian_MSFontService,sans-serif" font-size="83" x="220" y="0">×</tspan>3</text><rect x="1455.5" y="987.5" width="444" height="121" stroke="#000000" stroke-width="6.875" stroke-miterlimit="8" fill="#C5E0B4"/><text font-family="Times New Roman,Times New Roman_MSFontService,sans-serif" font-weight="400" font-size="83" transform="matrix(1 0 0 1 1522.11 1078)">Norm std</text><rect x="1447.5" y="-535.5" width="444" height="121" stroke="#000000" stroke-width="6.875" stroke-miterlimit="8" fill="#C5E0B4"/><text font-family="Times New Roman,Times New Roman_MSFontService,sans-serif" font-weight="400" font-size="83" transform="matrix(1 0 0 1 1532.51 -445)">Mod std</text><rect x="1450.5" y="556.5" width="444" height="120" stroke="#000000" stroke-width="6.875" stroke-miterlimit="8" fill="#FFD966"/><text font-family="Times New Roman,Times New Roman_MSFontService,sans-serif" font-weight="400" font-size="83" transform="matrix(1 0 0 1 1505.03 647)">Upsample</text><path d="M1674.5 158.5 1674.5 250.5M1619.5 204.5 1729.5 204.5" stroke="#000000" stroke-width="6.875" stroke-miterlimit="8" fill="none" fill-rule="evenodd"/><path d="M1619.5 204.5C1619.5 179.095 1644.12 158.5 1674.5 158.5 1704.88 158.5 1729.5 179.095 1729.5 204.5 1729.5 229.905 1704.88 250.5 1674.5 250.5 1644.12 250.5 1619.5 229.905 1619.5 204.5Z" stroke="#000000" stroke-width="6.875" stroke-miterlimit="8" fill="none" fill-rule="evenodd"/><path d="M1674.16-415 1674.16-374.325 1663.84-374.325 1663.84-415ZM1684.47-379.481 1669-348.543 1653.53-379.481Z"/><path d="M1679.16-213 1679.16-161.491 1668.84-161.49 1668.84-213ZM1689.47-166.647 1674-135.709 1658.53-166.647Z"/><rect x="1450.5" y="359.5" width="444" height="121" stroke="#000000" stroke-width="6.875" stroke-miterlimit="8" fill="#C5E0B4"/><text font-family="Times New Roman,Times New Roman_MSFontService,sans-serif" font-weight="400" font-size="83" transform="matrix(1 0 0 1 1535.97 450)">Mod std</text><path d="M1677.16 480 1677.16 530.422 1666.84 530.423 1666.84 480ZM1687.47 525.266 1672 556.204 1656.53 525.266Z"/><path d="M1677.16 676 1677.16 751.655 1666.84 751.655 1666.84 676ZM1687.47 746.498 1672 777.436 1656.53 746.498Z"/><path d="M1677.16 899 1677.16 962.047 1666.84 962.047 1666.84 899ZM1687.47 956.891 1672 987.828 1656.53 956.891Z"/><path d="M1352.5 1500.17C1352.5 1441.26 1400.26 1393.5 1459.17 1393.5L1885.83 1393.5C1944.74 1393.5 1992.5 1441.26 1992.5 1500.17L1992.5 1973.83C1992.5 2032.74 1944.74 2080.5 1885.83 2080.5L1459.17 2080.5C1400.26 2080.5 1352.5 2032.74 1352.5 1973.83Z" stroke="#000000" stroke-width="6.875" stroke-miterlimit="8" fill="#E7E6E6" fill-rule="evenodd"/><text font-family="Times New Roman,Times New Roman_MSFontService,sans-serif" font-weight="400" font-size="83" transform="matrix(1 0 0 1 1824.99 2052)">8<tspan font-family="DengXian,DengXian_MSFontService,sans-serif" font-size="83" x="41.25" y="0">×</tspan><tspan font-size="83" x="96.25" y="0">8</tspan></text><rect x="1455.5" y="1635.5" width="444" height="122" stroke="#000000" stroke-width="6.875" stroke-miterlimit="8" fill="#BDD7EE"/><text font-family="Times New Roman,Times New Roman_MSFontService,sans-serif" font-weight="400" font-size="83" transform="matrix(1 0 0 1 1518.9 1725)">Conv3<tspan font-family="DengXian,DengXian_MSFontService,sans-serif" font-size="83" x="220" y="0">×</tspan>3</text><rect x="1455.5" y="1835.5" width="444" height="133" stroke="#000000" stroke-width="6.875" stroke-miterlimit="8" fill="#C5E0B4"/><text font-family="Times New Roman,Times New Roman_MSFontService,sans-serif" font-weight="400" font-size="83" transform="matrix(1 0 0 1 1522.34 1932)">Norm std</text><rect x="1450.5" y="1434.5" width="444" height="121" stroke="#000000" stroke-width="6.875" stroke-miterlimit="8" fill="#C5E0B4"/><text font-family="Times New Roman,Times New Roman_MSFontService,sans-serif" font-weight="400" font-size="83" transform="matrix(1 0 0 1 1535.27 1525)">Mod std</text><path d="M1677.16 1555 1677.16 1595.68 1666.84 1595.68 1666.84 1555ZM1687.47 1590.52 1672 1621.46 1656.53 1590.52Z"/><path d="M1682.16 1757 1682.16 1808.51 1671.84 1808.51 1671.84 1757ZM1692.47 1803.35 1677 1834.29 1661.53 1803.35Z"/><path d="M1678.5 1229.5 1678.5 1321.5M1623.5 1275.5 1733.5 1275.5" stroke="#000000" stroke-width="6.875" stroke-miterlimit="8" fill="none" fill-rule="evenodd"/><path d="M1623.5 1275.5C1623.5 1250.09 1648.12 1229.5 1678.5 1229.5 1708.88 1229.5 1733.5 1250.09 1733.5 1275.5 1733.5 1300.91 1708.88 1321.5 1678.5 1321.5 1648.12 1321.5 1623.5 1300.91 1623.5 1275.5Z" stroke="#000000" stroke-width="6.875" stroke-miterlimit="8" fill="none" fill-rule="evenodd"/><path d="M1679.16-2.00008 1679.16 132.156 1668.84 132.156 1668.84-2.00005ZM1689.47 127 1674 157.938 1658.53 127Z"/><path d="M5.15543-0.0916848 6.63681 83.2058-3.67406 83.3892-5.15543 0.0916848ZM16.856 77.867 1.9398 109.075-14.0766 78.4171Z" transform="matrix(-1 0 0 1 1673.94 250)"/><path d="M1679.79 1108.48 1680.54 1206.27 1675.95 1206.31 1675.21 1108.52ZM1691.96 1201.6 1678.42 1229.21 1664.46 1201.81Z"/><path d="M2.28838-0.122717 7.15596 90.6464 2.57921 90.8919-2.28838 0.122717ZM18.3524 85.4561 6.09475 113.653-9.10812 86.9287Z" transform="matrix(-1 0 0 1 1678.59 1321.5)"/><path d="M5.15625-0.00563087 5.35221 179.437-4.96029 179.448-5.15625 0.00563087ZM15.6591 174.269 0.224114 205.224-15.2784 174.303Z" transform="matrix(-1 0 0 1 1677.22 1968)"/><text font-family="Microsoft YaHei,Microsoft YaHei_MSFontService,sans-serif" font-weight="400" font-size="83" transform="matrix(1 0 0 1 2029.5 1308)">噪音</text><path d="M6.9583e-06-5.15625 241.648-5.15592 241.648 5.15658-6.9583e-06 5.15625ZM236.491-15.4684 267.429 0.000360892 236.491 15.4691Z" transform="matrix(-1 0 0 1 1996.43 204)"/><path d="M1996.89 1284.62 1758.69 1280.59 1758.86 1270.28 1997.06 1274.31ZM1763.67 1290.99 1733 1275 1764.19 1260.06Z"/><text font-family="Microsoft YaHei,Microsoft YaHei_MSFontService,sans-serif" font-weight="400" font-size="83" transform="matrix(1 0 0 1 2029.5 233)">噪音<tspan font-family="Times New Roman,Times New Roman_MSFontService,sans-serif" font-size="83" x="-654.18" y="2">b</tspan><tspan font-family="Times New Roman,Times New Roman_MSFontService,sans-serif" font-size="55" x="-612.93" y="22">1</tspan><tspan font-family="Times New Roman,Times New Roman_MSFontService,sans-serif" font-size="83" x="-662.77" y="1072">b</tspan><tspan font-family="Times New Roman,Times New Roman_MSFontService,sans-serif" font-size="55" x="-621.52" y="1092">2</tspan></text><path d="M0.0629017-5.15587 115.357-3.74928 115.231 6.56245-0.0629017 5.15587ZM110.327-14.1239 141.073 1.7211 109.949 16.8113Z" transform="matrix(1 0 0 -1 1478 205.721)"/><path d="M0.00674484-5.15625 127.346-4.98967 127.332 5.32282-0.00674484 5.15625ZM122.203-15.3089 153.12 0.200295 122.162 15.6286Z" transform="matrix(1 0 0 -1 1470 1275.2)"/><text font-family="Microsoft YaHei,Microsoft YaHei_MSFontService,sans-serif" font-weight="400" font-size="92" transform="matrix(1 0 0 1 236.062 897)">特征潜码</text><path d="M1360.5 2204.83C1360.5 2191.39 1371.39 2180.5 1384.83 2180.5L1969.17 2180.5C1982.61 2180.5 1993.5 2191.39 1993.5 2204.83L1993.5 2302.17C1993.5 2315.61 1982.61 2326.5 1969.17 2326.5L1384.83 2326.5C1371.39 2326.5 1360.5 2315.61 1360.5 2302.17Z" stroke="#000000" stroke-width="6.875" stroke-miterlimit="8" fill="none" fill-rule="evenodd"/><text font-family="DengXian,DengXian_MSFontService,sans-serif" font-weight="400" font-size="92" transform="matrix(1 0 0 1 1646.72 2284)">...</text><path d="M1364.5 2479C1364.5 2466.57 1374.57 2456.5 1387 2456.5L1974 2456.5C1986.43 2456.5 1996.5 2466.57 1996.5 2479L1996.5 2569C1996.5 2581.43 1986.43 2591.5 1974 2591.5L1387 2591.5C1374.57 2591.5 1364.5 2581.43 1364.5 2569Z" stroke="#000000" stroke-width="6.875" stroke-miterlimit="8" fill="none" fill-rule="evenodd"/><text font-family="Times New Roman,Times New Roman_MSFontService,sans-serif" font-weight="400" font-size="83" transform="matrix(1 0 0 1 1487.54 2552)">1024<tspan font-family="DengXian,DengXian_MSFontService,sans-serif" font-size="83" x="165" y="0">×</tspan><tspan font-size="83" x="220" y="0">1024</tspan></text><path d="M1682.15 2325.87 1684.75 2429.47 1674.44 2429.73 1671.85 2326.13ZM1694.93 2424.06 1680.24 2455.37 1664 2424.83Z"/><text font-family="Times New Roman,Times New Roman_MSFontService,sans-serif" font-weight="400" font-size="83" transform="matrix(1 0 0 1 2113.58 -239)">w<tspan font-size="55" x="59.5835" y="20">1</tspan><tspan font-size="83" x="-18.813" y="1113">w</tspan><tspan font-size="55" x="40.7705" y="1133">2</tspan></text><path d="M1.02436e-05-5.15625 155.878-5.15594 155.878 5.15656-1.02436e-05 5.15625ZM150.722-15.4685 181.66 0.000360892 150.722 15.469Z" transform="matrix(-1 0 0 1 2080.66 -269)"/><path d="M1.20512e-05-5.15625 128.631-5.15595 128.631 5.15655-1.20512e-05 5.15625ZM123.475-15.4685 154.412 0.000360892 123.475 15.469Z" transform="matrix(-1 0 0 1 2061.41 845)"/><rect x="751" y="-634" width="1479" height="3295" stroke="#FF0000" stroke-width="13.75" stroke-miterlimit="8" stroke-dasharray="55 41.25" fill="none"/><path d="M833.5 582.167C833.5 563.021 849.021 547.5 868.167 547.5L1006.83 547.5C1025.98 547.5 1041.5 563.021 1041.5 582.167L1041.5 1149.83C1041.5 1168.98 1025.98 1184.5 1006.83 1184.5L868.167 1184.5C849.021 1184.5 833.5 1168.98 833.5 1149.83Z" stroke="#000000" stroke-width="6.875" stroke-miterlimit="8" fill="#EDEDED" fill-rule="evenodd"/><text font-family="Microsoft YaHei,Microsoft YaHei_MSFontService,sans-serif" font-weight="400" font-size="92" transform="matrix(1 0 0 1 891.294 733)">仿<tspan font-size="92" x="0" y="110">射</tspan><tspan font-size="92" x="0" y="220">变</tspan><tspan font-size="92" x="0" y="330">换</tspan></text><path d="M674 859.844 806.899 859.844 806.899 870.156 674 870.156ZM801.743 849.531 832.681 865 801.743 880.469Z"/><path d="M0.380901-5.14216 4.12867-4.86455 8.18494-3.96316 12.0927-2.56225 15.9898-0.613709 19.7057 1.77007 23.4208 4.59081 27.046 7.87396 30.5846 11.6129 34.0695 15.6896 37.5505 20.2214 40.9313 25.1626 44.2797 30.4428 47.624 36.1666 50.8861 42.2431 54.1293 48.6659 57.3823 55.4908 63.7107 70.1095 69.9042 86.162 75.9565 103.562 81.8737 122.258 87.5961 142.13 93.1233 163.108 98.5221 185.268 103.667 208.421 108.622 232.505 113.324 257.582 117.837 283.469 122.036 310.164 126.045 337.603 129.742 365.674 133.124 394.362 136.256 423.676 139.012 453.429 141.456 483.566 145.337 544.973 146.715 576.053 147.717 607.366 148.343 638.746 148.531 670.219 148.531 670.178 148.968 701.678 148.965 701.565 150.09 732.877 150.084 732.754 151.959 764.004 151.952 763.898 154.452 794.898 154.441 794.782 157.629 825.594 157.615 825.475 161.49 855.975 161.475 855.863 165.975 885.988 165.958 885.883 171.02 915.571 170.999 915.451 176.686 944.639 176.665 944.536 182.852 973.161 182.826 973.044 189.576 1001.11 189.549 1001 196.736 1028.31 196.701 1028.18 204.451 1054.81 204.416 1054.69 212.604 1080.57 212.564 1080.45 221.127 1105.39 221.079 1105.26 230.079 1129.32 230.022 1129.17 239.46 1152.23 239.402 1152.1 249.152 1174.1 249.085 1173.95 259.147 1194.89 259.059 1194.72 269.496 1214.47 269.402 1214.3 280.09 1232.8 279.98 1232.61 290.917 1249.86 290.777 1249.65 301.965 1265.53 301.8 1265.31 313.175 1279.75 313.017 1279.55 318.829 1286.24 318.731 1286.13 324.543 1292.44 324.415 1292.31 330.29 1298.25 330.17 1298.13 336.045 1303.69 335.869 1303.53 341.807 1308.66 341.638 1308.52 347.638 1313.27 347.447 1313.13 353.447 1317.44 353.235 1317.29 359.235 1321.17 359.016 1321.03 365.078 1324.53 364.787 1324.38 370.849 1327.38 370.553 1327.24 376.677 1329.81 375.704 1329.51 380.974 1330.57 378.941 1340.68 373.17 1339.52 366.422 1336.69 360.065 1333.55 353.748 1329.9 347.532 1325.89 341.331 1321.43 335.151 1316.54 329.041 1311.26 323.019 1305.56 317.02 1299.5 311.094 1293.06 305.152 1286.23 293.615 1271.58 282.275 1255.49 271.213 1238.05 260.424 1219.37 249.895 1199.45 239.756 1178.35 229.943 1156.21 220.448 1133.01 211.396 1108.8 202.79 1083.74 194.566 1057.75 186.781 1031 179.562 1003.57 172.785 975.398 166.574 946.663 160.865 917.364 155.783 887.564 151.267 857.331 147.377 826.715 144.178 795.785 141.669 764.674 139.787 733.31 138.658 701.878 138.219 670.301 138.031 638.843 138.032 638.915 137.407 607.603 137.409 607.665 136.409 576.415 136.411 576.479 135.036 545.478 135.042 545.575 131.167 484.263 131.173 484.354 128.736 454.292 128.741 454.351 125.991 424.663 125.998 424.735 122.873 395.485 122.879 395.541 119.504 366.916 119.513 366.986 115.825 338.986 115.835 339.058 111.835 311.683 111.844 311.739 107.656 285.114 107.67 285.198 103.17 259.386 103.182 259.45 98.4946 234.45 98.512 234.539 93.5745 210.539 93.5915 210.619 88.4665 187.556 88.4903 187.658 83.1153 165.596 83.1389 165.689 77.6389 144.814 77.6701 144.927 71.9826 125.177 72.0216 125.306 66.1466 106.743 66.1924 106.881 60.1924 89.6314 60.2519 89.7936 54.1269 73.9186 54.2056 74.1109 47.9556 59.6734 48.0329 59.8435 44.8454 53.156 44.8973 53.2617 41.7098 46.9492 41.7695 47.0639 38.582 41.1264 38.673 41.2887 35.423 35.7262 35.5205 35.8864 32.2705 30.7614 32.3695 30.9117 29.1195 26.1616 29.2858 26.391 25.9733 22.0785 26.1431 22.2879 22.8306 18.4129 23.0051 18.6068 19.6926 15.1068 19.9762 15.3843 16.6637 12.3843 17.007 12.6692 13.632 10.1067 13.9659 10.34 10.6534 8.21498 11.1316 8.48689 7.75656 6.79939 8.32246 7.04128 5.00997 5.85378 5.63145 6.03346 2.25645 5.28346 2.9941 5.39216-0.380901 5.14216ZM377.855 1319.45 405.263 1340.55 371.938 1349.82Z" transform="matrix(1 0 0 -1 1041 865.553)"/><path d="M0.168415-5.1535 9.89861-4.83552 19.8121-3.86361 29.6231-2.18541 39.4148 0.00484385 49.0762 2.83884 58.6658 6.18554 68.1108 10.1691 77.4009 14.59 86.4941 19.5208 95.453 24.8961 104.228 30.7891 112.723 37.1122 121.013 43.808 129.097 50.9298 144.305 66.2007 158.334 82.8442 170.917 100.639 176.748 109.931 182.114 119.512 187.023 129.203 191.556 139.163 195.58 149.255 199.158 159.477 202.23 169.843 204.789 180.338 206.839 190.97 208.314 201.618 209.212 212.332 209.529 222.908 209.841 233.346 209.826 233.069 210.701 243.507 210.67 243.23 212.107 253.605 212.069 253.366 214.006 263.741 213.938 263.43 216.5 273.617 216.446 273.418 219.446 283.606 219.367 283.359 222.867 293.359 222.79 293.153 226.727 303.028 226.631 302.802 231.068 312.552 230.975 312.357 235.787 321.857 235.679 321.655 240.929 330.968 240.813 330.773 246.501 339.898 246.33 339.641 258.705 357.078 258.443 356.739 272.193 373.052 271.904 372.737 286.841 387.737 286.596 387.506 294.471 394.443 294.302 394.301 302.427 400.864 302.266 400.739 310.579 406.926 310.375 406.782 318.937 412.532 318.715 412.391 327.465 417.641 327.27 417.53 336.145 422.342 335.929 422.232 344.992 426.607 344.726 426.488 353.914 430.3 353.637 430.194 362.949 433.444 362.701 433.365 372.076 436.115 371.523 435.985 383.989 438.19 382.192 448.345 369.447 446.09 359.674 443.224 350.098 439.882 340.639 435.957 331.336 431.466 322.256 426.542 313.297 421.166 304.522 415.273 296.027 408.95 287.737 402.254 279.653 395.133 264.445 379.862 250.419 363.222 237.831 345.483 232.002 336.131 226.64 326.62 221.727 316.922 217.193 306.961 213.17 296.87 209.59 286.643 206.525 276.233 203.898 265.791 201.909 255.14 200.436 244.507 199.538 233.793 199.221 223.217 198.909 212.779 198.924 213.056 198.049 202.618 198.08 202.895 196.643 192.52 196.687 192.789 194.687 182.414 194.741 182.659 192.241 172.409 192.306 172.652 189.306 162.527 189.383 162.766 185.883 152.766 185.96 152.972 182.023 143.097 182.119 143.323 177.682 133.573 177.775 133.768 172.963 124.268 173.064 124.457 167.814 115.082 167.945 115.303 162.258 106.241 162.415 106.477 150.04 88.9771 150.307 89.3232 136.557 73.0107 136.846 73.3259 121.909 58.3259 122.154 58.5565 114.279 51.619 114.448 51.7613 106.323 45.1988 106.484 45.3237 98.1712 39.1362 98.3754 39.2806 89.8129 33.5306 90.0346 33.6714 81.2846 28.4214 81.4796 28.5327 72.6046 23.7202 72.8469 23.8435 63.7844 19.531 63.9962 19.626 54.8087 15.751 55.1135 15.8683 45.801 12.6183 46.0486 12.6978 36.6736 9.94778 36.9994 10.0319 27.4994 7.9069 27.7556 7.95743 18.2556 6.33243 18.6219 6.38165 9.0594 5.44415 9.39408 5.466-0.168415 5.1535ZM379.622 427.335 408.723 446.031 376.306 458.095Z" transform="matrix(1 0 0 -1 1041 865.031)"/><path d="M1041.24 859.849 1051.05 860.298 1061.07 861.739 1071 864.026 1080.85 867.22 1090.57 871.24 1100.21 876.026 1109.63 881.576 1118.95 887.877 1128.05 894.863 1137.02 902.481 1145.7 910.783 1154.24 919.639 1162.46 929.066 1170.46 939.046 1178.21 949.59 1185.64 960.573 1192.75 972.055 1199.52 983.962 1205.98 996.246 1212.06 1008.9 1217.82 1021.94 1223.14 1035.24 1228.01 1048.91 1232.43 1062.75 1236.49 1076.87 1239.97 1091.18 1243 1105.72 1245.53 1120.33 1247.56 1135.09 1249.02 1149.97 1249.9 1164.92 1250.22 1179.77 1250.53 1194.52 1250.52 1194.32 1251.4 1209.07 1251.38 1208.87 1252.82 1223.5 1252.8 1223.32 1254.74 1237.88 1254.71 1237.69 1257.21 1252.19 1257.17 1252 1260.17 1266.32 1260.13 1266.13 1263.63 1280.26 1263.58 1280.08 1267.58 1294.01 1267.54 1293.87 1271.91 1307.62 1271.85 1307.45 1276.67 1320.89 1276.6 1320.72 1281.85 1333.91 1281.78 1333.74 1287.41 1346.55 1287.33 1346.37 1293.39 1358.87 1293.32 1358.74 1299.64 1370.87 1299.53 1370.68 1306.28 1382.43 1306.2 1382.29 1313.2 1393.6 1313.08 1393.42 1320.4 1404.24 1320.28 1404.07 1327.9 1414.45 1327.78 1414.29 1335.6 1424.1 1335.44 1423.91 1343.56 1433.16 1343.41 1433 1351.73 1441.69 1351.55 1441.51 1360.11 1449.63 1359.92 1449.46 1368.6 1456.9 1368.38 1456.71 1377.31 1463.52 1377.09 1463.36 1386.09 1469.49 1385.79 1469.3 1394.98 1474.67 1394.68 1474.51 1403.93 1479.14 1403.59 1478.98 1412.97 1482.86 1412.27 1482.63 1424.8 1485.81 1422.26 1495.81 1409.37 1492.53 1399.48 1488.44 1389.92 1483.66 1380.43 1478.11 1371.17 1471.81 1362.01 1464.82 1353.11 1457.21 1344.36 1448.9 1335.89 1440.05 1327.61 1430.62 1319.65 1420.63 1311.91 1410.1 1304.48 1399.11 1297.38 1387.64 1290.54 1375.73 1284.14 1363.44 1278.01 1350.79 1272.3 1337.8 1266.99 1324.45 1262.11 1310.84 1257.69 1296.93 1253.64 1282.83 1250.1 1268.52 1247.06 1254.03 1244.53 1239.34 1242.56 1224.59 1241.11 1209.78 1240.22 1194.83 1239.91 1179.98 1239.59 1165.23 1239.6 1165.43 1238.73 1150.68 1238.74 1150.88 1237.31 1136.19 1237.33 1136.39 1235.33 1121.83 1235.36 1122 1232.86 1107.57 1232.89 1107.74 1229.89 1093.37 1229.93 1093.53 1226.49 1079.41 1226.54 1079.61 1222.54 1065.67 1222.59 1065.82 1218.21 1052.13 1218.27 1052.29 1213.46 1038.79 1213.52 1038.98 1208.27 1025.85 1208.35 1026.02 1202.66 1013.15 1202.73 1013.29 1196.73 1000.79 1196.81 1000.96 1190.44 988.837 1190.52 988.988 1183.83 977.238 1183.93 977.401 1176.93 966.088 1177.04 966.263 1169.73 955.451 1169.84 955.616 1162.22 945.241 1162.35 945.415 1154.48 935.602 1154.61 935.763 1146.55 926.513 1146.73 926.703 1138.35 918.016 1138.5 918.165 1130 910.04 1130.22 910.241 1121.47 902.804 1121.67 902.965 1112.8 896.153 1113.05 896.334 1103.99 890.209 1104.26 890.38 1095.13 885.005 1095.46 885.18 1086.14 880.555 1086.47 880.703 1077.09 876.828 1077.47 876.967 1068.03 873.904 1068.47 874.025 1058.97 871.837 1059.39 871.916 1049.83 870.541 1050.33 870.588 1040.76 870.151ZM1420.75 1474.74 1449.02 1494.66 1416.12 1505.33Z"/><text font-family="Microsoft YaHei,Microsoft YaHei_MSFontService,sans-serif" font-weight="700" font-size="110" transform="matrix(1 0 0 1 830.098 -413)">生成器</text><rect x="2941.5" y="434.5" width="170" height="871" stroke="#000000" stroke-width="6.875" stroke-miterlimit="8" fill="none"/><text font-family="Times New Roman,Times New Roman_MSFontService,sans-serif" font-weight="400" font-size="92" transform="matrix(-1.83697e-16 -1 1 -1.83697e-16 3058.96 1081)">1024<tspan font-family="DengXian,DengXian_MSFontService,sans-serif" font-size="83" x="184" y="3.38003e-14">×</tspan><tspan font-size="92" x="239" y="4.39036e-14">1024</tspan></text><rect x="3152.5" y="465.5" width="107" height="810" stroke="#000000" stroke-width="6.875" stroke-miterlimit="8" fill="none"/><rect x="3300.5" y="505.5" width="77" height="729" stroke="#000000" stroke-width="6.875" stroke-miterlimit="8" fill="none"/><text font-family="Arial,Arial_MSFontService,sans-serif" font-weight="400" font-size="92" transform="matrix(1 0 0 1 3422.38 919)">…</text><rect x="3528.5" y="747.5" width="100" height="319" stroke="#000000" stroke-width="6.875" stroke-miterlimit="8" fill="none"/><text font-family="Times New Roman,Times New Roman_MSFontService,sans-serif" font-weight="400" font-size="83" transform="matrix(-1.83697e-16 -1 1 -1.83697e-16 3606.28 975)">4<tspan font-family="DengXian,DengXian_MSFontService,sans-serif" font-size="83" x="41" y="7.53158e-15">×</tspan><tspan font-size="83" x="96" y="1.76349e-14">4</tspan></text><rect x="2900.5" y="199.5" width="786" height="1188" stroke="#ED7D31" stroke-width="6.875" stroke-miterlimit="8" fill="none"/><text font-family="Microsoft YaHei,Microsoft YaHei_MSFontService,sans-serif" font-weight="700" font-size="110" transform="matrix(1 0 0 1 3292.16 371)">判别器</text><path d="M3837.5 718.168C3837.5 697.364 3854.36 680.5 3875.17 680.5L4233.83 680.5C4254.64 680.5 4271.5 697.364 4271.5 718.168L4271.5 868.833C4271.5 889.636 4254.64 906.5 4233.83 906.5L3875.17 906.5C3854.36 906.5 3837.5 889.636 3837.5 868.833Z" stroke="#000000" stroke-width="6.875" stroke-miterlimit="8" fill="none" fill-rule="evenodd"/><text font-family="Microsoft YaHei,Microsoft YaHei_MSFontService,sans-serif" font-weight="400" font-size="83" transform="matrix(1 0 0 1 3888.73 823)">损失函数</text><path d="M0-5.15625 557.383-5.15625 557.383 397.411 552.226 392.254 644.307 392.254 644.307 402.567 547.07 402.567 547.07 0 552.226 5.15625 0 5.15625ZM639.151 381.942 670.088 397.411 639.151 412.879Z" transform="matrix(1 0 0 -1 2243 1355.41)"/><path d="M2269.5 252.167C2269.5 226.394 2290.39 205.5 2316.17 205.5L2655.83 205.5C2681.61 205.5 2702.5 226.394 2702.5 252.167L2702.5 438.833C2702.5 464.606 2681.61 485.5 2655.83 485.5L2316.17 485.5C2290.39 485.5 2269.5 464.606 2269.5 438.833Z" stroke="#000000" stroke-width="6.875" stroke-miterlimit="8" fill="#FFFF00" fill-rule="evenodd"/><text font-family="Microsoft YaHei,Microsoft YaHei_MSFontService,sans-serif" font-weight="400" font-size="110" transform="matrix(1 0 0 1 2320.82 385)">原图像</text><path d="M2702 339.844 2806 339.844 2806 793.073 2800.84 787.917 2873.9 787.917 2873.9 798.229 2795.69 798.229 2795.69 345 2800.84 350.156 2702 350.156ZM2868.75 777.604 2899.69 793.073 2868.75 808.542Z"/><path d="M3686.01 787.844 3810.81 787.979 3810.8 798.291 3685.99 798.156ZM3805.66 777.661 3836.59 793.163 3805.63 808.598Z"/><path d="M0-6.875 55-6.875 55 6.875 0 6.875ZM96.25-6.875 151.25-6.875 151.25 6.875 96.25 6.875ZM192.5-6.875 247.5-6.875 247.5 6.875 192.5 6.875ZM288.75-6.875 343.75-6.875 343.75 6.875 288.75 6.875ZM385-6.875 440-6.875 440 6.875 385 6.875ZM481.25-6.875 536.25-6.875 536.25 6.875 481.25 6.875ZM570.481 13.8938 570.481 68.8938 556.731 68.8938 556.731 13.8938ZM570.481 110.144 570.481 165.144 556.731 165.144 556.731 110.144ZM570.481 206.394 570.481 261.394 556.731 261.394 556.731 206.394ZM570.481 302.644 570.481 357.644 556.731 357.644 556.731 302.644ZM570.481 398.894 570.481 453.894 556.731 453.894 556.731 398.894ZM570.481 495.144 570.481 550.144 556.731 550.144 556.731 495.144ZM570.481 591.394 570.481 646.394 556.731 646.394 556.731 591.394ZM570.481 687.644 570.481 742.644 556.731 742.644 556.731 687.644ZM540.538 767.701 515.481 767.701 515.481 753.951 540.538 753.951ZM522.356 781.451 481.106 760.826 522.356 740.201Z" transform="matrix(-1.83697e-16 -1 -1 1.83697e-16 4053.83 680.106)"/><path d="M4060.39 906 4060.39 961 4046.64 961 4046.64 906ZM4060.39 1002.25 4060.39 1057.25 4046.64 1057.25 4046.64 1002.25ZM4060.39 1098.5 4060.39 1153.5 4046.64 1153.5 4046.64 1098.5ZM4060.39 1194.75 4060.39 1249.75 4046.64 1249.75 4046.64 1194.75ZM4060.39 1291 4060.39 1346 4046.64 1346 4046.64 1291ZM4060.39 1387.25 4060.39 1442.25 4046.64 1442.25 4046.64 1387.25ZM4060.39 1483.5 4060.39 1538.5 4046.64 1538.5 4046.64 1483.5ZM4060.39 1579.75 4060.39 1634.75 4046.64 1634.75 4046.64 1579.75ZM4060.39 1676 4060.39 1731 4046.64 1731 4046.64 1676ZM4060.39 1772.25 4060.39 1827.25 4046.64 1827.25 4046.64 1772.25ZM4060.39 1868.5 4060.39 1907.97 4031.11 1907.97 4031.11 1894.22 4053.51 1894.22 4046.64 1901.1 4046.64 1868.5ZM3989.86 1907.97 3934.86 1907.97 3934.86 1894.22 3989.86 1894.22ZM3893.61 1907.97 3838.61 1907.97 3838.61 1894.22 3893.61 1894.22ZM3797.36 1907.97 3742.36 1907.97 3742.36 1894.22 3797.36 1894.22ZM3701.11 1907.97 3646.11 1907.97 3646.11 1894.22 3701.11 1894.22ZM3604.86 1907.97 3549.86 1907.97 3549.86 1894.22 3604.86 1894.22ZM3508.61 1907.97 3453.61 1907.97 3453.61 1894.22 3508.61 1894.22ZM3412.36 1907.97 3357.36 1907.97 3357.36 1894.22 3412.36 1894.22ZM3316.11 1907.97 3261.11 1907.97 3261.11 1894.22 3316.11 1894.22ZM3219.86 1907.97 3164.86 1907.97 3164.86 1894.22 3219.86 1894.22ZM3123.61 1907.97 3068.61 1907.97 3068.61 1894.22 3123.61 1894.22ZM3027.36 1907.97 2972.36 1907.97 2972.36 1894.22 3027.36 1894.22ZM2931.11 1907.97 2876.11 1907.97 2876.11 1894.22 2931.11 1894.22ZM2834.86 1907.97 2779.86 1907.97 2779.86 1894.22 2834.86 1894.22ZM2738.61 1907.97 2683.61 1907.97 2683.61 1894.22 2738.61 1894.22ZM2642.36 1907.97 2587.36 1907.97 2587.36 1894.22 2642.36 1894.22ZM2546.11 1907.97 2491.11 1907.97 2491.11 1894.22 2546.11 1894.22ZM2449.86 1907.97 2394.86 1907.97 2394.86 1894.22 2449.86 1894.22ZM2353.61 1907.97 2298.61 1907.97 2298.61 1894.22 2353.61 1894.22ZM2274.25 1921.72 2233 1901.1 2274.25 1880.47Z"/><text font-family="Microsoft YaHei,Microsoft YaHei_MSFontService,sans-serif" font-weight="400" font-size="83" transform="matrix(1 0 0 1 3172.82 2023)">训练优化<tspan font-size="83" x="423.077" y="-1936">训练优化</tspan><tspan font-weight="700" font-size="128" x="-1693.07" y="850">表</tspan><tspan font-weight="700" font-size="128" x="-1526.35" y="850">情</tspan><tspan font-weight="700" font-size="128" x="-1359.63" y="850">合</tspan><tspan font-weight="700" font-size="128" x="-1192.92" y="850">成</tspan><tspan font-weight="700" font-size="128" x="-1026.2" y="850">网</tspan><tspan font-weight="700" font-size="128" x="-859.478" y="850">络</tspan><tspan font-weight="700" font-size="128" x="-692.759" y="850">框</tspan><tspan font-weight="700" font-size="128" x="-526.04" y="850">架</tspan><tspan font-weight="700" font-size="128" x="-359.321" y="850">图</tspan></text></g></svg>